<?xml version="1.0" encoding="UTF-8" standalone="no"?><!-- Generator: Gravit.io --><svg xmlns="http://www.w3.org/2000/svg" xmlns:xlink="http://www.w3.org/1999/xlink" style="isolation:isolate" viewBox="0 0 50 50" width="50pt" height="50pt"><defs><clipPath id="_clipPath_j2ILHKsA3rPYHeWCUW3HyNJkOOZnrjsu"><rect width="50" height="50"/></clipPath></defs><g clip-path="url(#_clipPath_j2ILHKsA3rPYHeWCUW3HyNJkOOZnrjsu)"><path d=" M 23.809 1.982 C 11.119 1.982 0.791 12.306 0.791 25 C 0.791 37.694 11.119 48.018 23.809 48.018 C 36.5 48.018 46.828 37.694 46.828 25 C 46.828 21.313 45.929 17.674 44.245 14.421 L 48.977 9.686 C 49.286 9.376 49.286 8.874 48.977 8.564 L 45.802 5.389 C 45.492 5.079 44.989 5.079 44.679 5.389 L 40.658 9.41 C 40.621 9.309 40.564 9.217 40.491 9.138 C 36.1 4.524 30.175 1.982 23.809 1.982 Z  M 23.809 3.569 C 29.738 3.569 35.254 5.934 39.337 10.232 C 39.423 10.319 39.528 10.385 39.644 10.425 L 37.29 12.778 C 37.253 12.681 37.199 12.592 37.129 12.514 C 36.487 11.832 35.795 11.198 35.058 10.62 C 34.712 10.35 34.214 10.41 33.942 10.753 C 33.812 10.919 33.754 11.129 33.779 11.338 C 33.805 11.547 33.913 11.737 34.079 11.866 C 34.752 12.396 35.384 12.977 35.97 13.603 C 36.057 13.692 36.162 13.754 36.274 13.798 L 23.809 26.259 L 15.639 18.089 C 15.33 17.779 14.827 17.779 14.517 18.089 L 11.342 21.264 C 11.032 21.574 11.032 22.076 11.342 22.386 L 23.248 34.292 C 23.403 34.447 23.605 34.525 23.809 34.525 C 24.02 34.525 24.222 34.442 24.371 34.292 L 39.439 19.224 C 39.577 19.602 39.702 19.984 39.814 20.371 C 39.842 20.473 39.88 20.576 39.907 20.678 C 40 21.038 40.084 21.4 40.156 21.763 C 40.168 21.825 40.177 21.887 40.19 21.949 C 40.841 25.509 40.304 29.201 38.708 32.429 C 38.627 32.59 38.546 32.754 38.46 32.916 C 38.329 33.16 38.19 33.406 38.047 33.645 C 37.914 33.865 37.775 34.076 37.632 34.286 C 37.508 34.469 37.39 34.658 37.256 34.838 C 36.984 35.216 36.695 35.577 36.391 35.926 C 36.283 36.05 36.165 36.168 36.054 36.289 C 31.329 41.405 23.686 43.209 16.988 40.208 C 15.051 39.338 13.299 38.103 11.829 36.571 C 11.63 36.366 11.445 36.153 11.258 35.939 C 11.068 35.724 10.883 35.505 10.703 35.281 C 10.567 35.108 10.443 34.928 10.316 34.751 C 10.11 34.475 9.915 34.192 9.73 33.902 C 9.646 33.772 9.571 33.635 9.494 33.502 C 9.293 33.164 9.097 32.822 8.92 32.47 C 8.868 32.36 8.821 32.249 8.769 32.14 C 8.59 31.768 8.424 31.39 8.273 31.005 C 8.223 30.878 8.182 30.745 8.136 30.618 C 8.005 30.255 7.885 29.888 7.777 29.517 C 7.721 29.319 7.681 29.115 7.631 28.913 C 7.555 28.614 7.486 28.313 7.426 28.011 C 7.376 27.711 7.334 27.41 7.299 27.108 C 7.271 26.898 7.237 26.687 7.219 26.476 C 7.187 26.096 7.169 25.716 7.166 25.335 C 7.159 25.192 7.154 25.052 7.154 24.913 C 7.157 24.501 7.181 24.091 7.212 23.682 C 7.222 23.559 7.224 23.437 7.237 23.313 C 7.277 22.926 7.336 22.535 7.404 22.147 C 7.429 21.996 7.454 21.841 7.485 21.689 C 7.55 21.35 7.64 21.022 7.727 20.687 C 7.786 20.476 7.838 20.266 7.904 20.055 C 7.987 19.779 8.086 19.509 8.185 19.239 C 8.285 18.976 8.384 18.709 8.496 18.448 C 8.613 18.17 8.744 17.897 8.877 17.624 C 8.964 17.447 9.051 17.264 9.144 17.09 C 9.321 16.759 9.517 16.436 9.721 16.117 C 9.789 16.005 9.851 15.89 9.922 15.782 C 10.204 15.358 10.508 14.945 10.833 14.545 C 10.911 14.446 10.998 14.356 11.079 14.259 C 11.336 13.956 11.603 13.658 11.882 13.367 C 12.064 13.184 12.247 13.001 12.437 12.824 C 12.517 12.749 12.598 12.669 12.681 12.595 C 12.97 12.337 13.267 12.089 13.572 11.851 C 13.673 11.77 13.782 11.695 13.888 11.618 C 14.235 11.357 14.594 11.112 14.963 10.883 C 15.147 10.769 15.332 10.659 15.519 10.552 C 15.844 10.365 16.176 10.189 16.514 10.028 C 16.638 9.966 16.759 9.901 16.882 9.845 C 17.118 9.736 17.354 9.64 17.593 9.543 C 17.692 9.504 17.791 9.466 17.894 9.426 C 18.151 9.33 18.411 9.231 18.675 9.147 C 18.681 9.143 18.684 9.143 18.691 9.143 C 19.302 8.948 19.921 8.784 20.551 8.657 L 20.575 8.654 C 20.931 8.582 21.29 8.524 21.651 8.48 C 22.492 8.369 23.34 8.324 24.188 8.344 C 24.358 8.347 24.525 8.35 24.696 8.36 C 24.904 8.372 25.112 8.384 25.323 8.403 C 25.605 8.427 25.89 8.465 26.178 8.505 C 26.272 8.517 26.368 8.527 26.461 8.543 C 26.893 8.611 27.299 8.317 27.369 7.885 L 27.369 7.882 C 27.403 7.674 27.353 7.461 27.229 7.29 C 27.106 7.119 26.92 7.004 26.711 6.97 C 26.612 6.954 26.513 6.952 26.414 6.936 C 26.098 6.89 25.779 6.853 25.459 6.822 C 25.038 6.789 24.616 6.767 24.194 6.757 C 22.895 6.731 21.596 6.843 20.321 7.091 C 20.231 7.107 20.145 7.128 20.055 7.146 C 19.522 7.259 18.994 7.396 18.473 7.556 C 18.359 7.59 18.247 7.621 18.132 7.659 C 17.894 7.739 17.658 7.826 17.419 7.913 C 17.243 7.981 17.066 8.05 16.892 8.12 C 16.687 8.204 16.479 8.288 16.278 8.381 C 15.924 8.543 15.572 8.712 15.227 8.896 C 15.112 8.958 15.001 9.026 14.885 9.088 C 14.607 9.245 14.332 9.408 14.062 9.578 C 13.943 9.652 13.826 9.73 13.708 9.808 C 13.41 10.006 13.119 10.213 12.834 10.427 C 12.769 10.477 12.7 10.524 12.635 10.573 C 12.278 10.849 11.931 11.14 11.593 11.444 C 11.537 11.494 11.488 11.544 11.432 11.593 C 11.256 11.757 11.075 11.922 10.902 12.093 C 10.84 12.154 10.787 12.222 10.725 12.287 C 10.446 12.576 10.176 12.88 9.913 13.19 C 9.804 13.314 9.69 13.438 9.587 13.565 C 9.241 13.994 8.915 14.438 8.608 14.896 C 8.517 15.035 8.44 15.174 8.356 15.314 C 8.146 15.649 7.941 15.984 7.752 16.334 C 7.647 16.532 7.55 16.734 7.45 16.936 C 7.355 17.134 7.246 17.326 7.154 17.531 C 7.082 17.692 7.02 17.853 6.955 18.015 C 6.926 18.077 6.899 18.14 6.874 18.204 C 6.668 18.718 6.485 19.242 6.326 19.772 C 6.319 19.788 6.316 19.804 6.31 19.819 C 5.646 22.063 5.42 24.413 5.646 26.742 C 5.649 26.749 5.649 26.755 5.653 26.761 C 5.705 27.31 5.783 27.853 5.885 28.388 C 5.898 28.463 5.916 28.538 5.932 28.612 C 6.025 29.086 6.139 29.551 6.273 30.017 C 6.31 30.153 6.353 30.287 6.394 30.42 C 6.575 31.001 6.785 31.574 7.023 32.134 C 7.178 32.506 7.349 32.872 7.528 33.232 C 7.616 33.403 7.702 33.57 7.795 33.734 C 8.072 34.245 8.373 34.741 8.697 35.223 C 8.964 35.619 9.246 36 9.544 36.376 C 9.609 36.457 9.671 36.54 9.739 36.621 C 10.086 37.042 10.456 37.452 10.843 37.843 C 10.864 37.864 10.883 37.889 10.902 37.911 C 10.908 37.914 10.914 37.914 10.918 37.917 C 12.483 39.484 14.322 40.751 16.344 41.656 C 18.683 42.71 21.219 43.255 23.785 43.256 C 28.631 43.251 33.278 41.331 36.714 37.914 C 36.717 37.911 36.72 37.911 36.72 37.908 C 36.786 37.846 36.838 37.778 36.9 37.713 C 37.154 37.455 37.405 37.189 37.644 36.909 C 37.7 36.847 37.747 36.779 37.799 36.717 C 38.048 36.423 38.286 36.122 38.515 35.812 C 38.541 35.774 38.565 35.741 38.59 35.703 C 39.326 34.693 39.956 33.609 40.469 32.469 C 41.985 29.081 42.433 25.31 41.752 21.661 L 41.715 21.453 C 41.635 21.056 41.548 20.659 41.442 20.265 C 41.415 20.154 41.374 20.045 41.343 19.93 C 41.265 19.667 41.184 19.4 41.098 19.137 C 41.039 18.97 40.98 18.802 40.919 18.634 C 40.838 18.42 40.751 18.21 40.665 17.999 L 43.07 15.596 C 44.495 18.526 45.237 21.741 45.24 25 C 45.24 36.816 35.626 46.431 23.809 46.431 C 11.993 46.431 2.378 36.816 2.378 25 C 2.378 13.184 11.993 3.569 23.809 3.569 Z  M 45.24 7.073 L 47.293 9.125 L 23.809 32.609 L 13.026 21.825 L 15.078 19.772 L 23.248 27.942 C 23.558 28.252 24.061 28.252 24.371 27.942 L 45.24 7.073 Z  M 29.886 7.845 C 29.569 7.859 29.291 8.062 29.18 8.359 C 29.105 8.557 29.112 8.776 29.2 8.968 C 29.287 9.16 29.447 9.31 29.645 9.383 C 30.212 9.593 30.771 9.838 31.313 10.108 C 31.423 10.165 31.546 10.195 31.67 10.195 C 31.958 10.195 32.237 10.036 32.379 9.758 C 32.575 9.366 32.417 8.889 32.026 8.691 C 31.437 8.393 30.82 8.127 30.2 7.894 C 30.099 7.858 29.993 7.841 29.886 7.845 Z " fill="rgb(130,106,237)"/></g></svg>