<?xml version="1.0" encoding="UTF-8" standalone="no"?><!-- Generator: Gravit.io --><svg xmlns="http://www.w3.org/2000/svg" xmlns:xlink="http://www.w3.org/1999/xlink" style="isolation:isolate" viewBox="0 0 50 50" width="50pt" height="50pt"><defs><clipPath id="_clipPath_L9tGtaZXLjgNRH7Gm2TqLVduYKklf7ge"><rect width="50" height="50"/></clipPath></defs><g clip-path="url(#_clipPath_L9tGtaZXLjgNRH7Gm2TqLVduYKklf7ge)"><circle vector-effect="non-scaling-stroke" cx="24.999999999999982" cy="24.999999999999982" r="18.660259883445992" fill="rgb(220,209,247)"/><path d=" M 25.104 2.608 C 12.788 2.608 2.712 12.684 2.712 25 C 2.712 37.316 12.788 47.392 25.104 47.392 C 36.748 47.392 46.166 38.664 47.286 27.239 L 42.807 27.239 C 41.688 35.968 34.061 42.914 25.104 42.914 C 15.256 42.914 7.19 34.848 7.19 25 C 7.19 15.152 15.256 7.086 25.104 7.086 C 28.235 7.086 31.166 7.977 33.851 9.325 L 37.209 5.967 C 33.624 3.956 29.583 2.608 25.104 2.608 Z  M 44.138 9.045 L 23.284 28.988 L 15.028 20.732 L 11.879 23.88 L 23.284 35.287 L 24.896 33.746 L 47.288 12.263 L 44.138 9.045 Z " fill="rgb(130,106,237)"/></g></svg>